<mxfile host="app.diagrams.net" modified="2021-02-18T22:12:02.455Z" agent="5.0 (Windows NT 10.0; Win64; x64) AppleWebKit/537.36 (KHTML, like Gecko) Chrome/88.0.4324.150 Safari/537.36" etag="Gw1k8d5DgsQnUO4WQHri" version="14.3.0" type="github" pages="3">
  <diagram id="C__Bq0LCmNC4CeiJP49S" name="UseCase:Igranje Solitaire">
    <mxGraphModel dx="1038" dy="1717" grid="1" gridSize="10" guides="1" tooltips="1" connect="1" arrows="1" fold="1" page="1" pageScale="1" pageWidth="827" pageHeight="1169" math="0" shadow="0">
      <root>
        <mxCell id="0" />
        <mxCell id="1" parent="0" />
        <mxCell id="78BIV_a2vbyTNAHULvef-1" value="Igra훾" style="shape=umlActor;verticalLabelPosition=bottom;verticalAlign=top;html=1;outlineConnect=0;" parent="1" vertex="1">
          <mxGeometry x="130" y="-520" width="30" height="60" as="geometry" />
        </mxCell>
        <mxCell id="78BIV_a2vbyTNAHULvef-2" value="Igranje Solitaire" style="ellipse;whiteSpace=wrap;html=1;" parent="1" vertex="1">
          <mxGeometry x="230" y="-530" width="120" height="80" as="geometry" />
        </mxCell>
        <mxCell id="78BIV_a2vbyTNAHULvef-3" value="" style="endArrow=none;html=1;entryX=0;entryY=0.5;entryDx=0;entryDy=0;exitX=0.5;exitY=0.5;exitDx=0;exitDy=0;exitPerimeter=0;" parent="1" source="78BIV_a2vbyTNAHULvef-1" target="78BIV_a2vbyTNAHULvef-2" edge="1">
          <mxGeometry width="50" height="50" relative="1" as="geometry">
            <mxPoint x="390" y="-240" as="sourcePoint" />
            <mxPoint x="220" y="-480" as="targetPoint" />
            <Array as="points">
              <mxPoint x="190" y="-490" />
            </Array>
          </mxGeometry>
        </mxCell>
        <mxCell id="78BIV_a2vbyTNAHULvef-5" value="Dijeljenje karata" style="ellipse;whiteSpace=wrap;html=1;" parent="1" vertex="1">
          <mxGeometry x="420" y="-620" width="120" height="80" as="geometry" />
        </mxCell>
        <mxCell id="78BIV_a2vbyTNAHULvef-8" value="Igranje(slaganje)" style="ellipse;whiteSpace=wrap;html=1;" parent="1" vertex="1">
          <mxGeometry x="510" y="-530" width="120" height="80" as="geometry" />
        </mxCell>
        <mxCell id="78BIV_a2vbyTNAHULvef-9" value="Pobjeda" style="ellipse;whiteSpace=wrap;html=1;" parent="1" vertex="1">
          <mxGeometry x="440" y="-430" width="120" height="80" as="geometry" />
        </mxCell>
        <mxCell id="78BIV_a2vbyTNAHULvef-17" value="Use" style="endArrow=open;endSize=12;dashed=1;html=1;exitX=1;exitY=0;exitDx=0;exitDy=0;entryX=0.053;entryY=0.25;entryDx=0;entryDy=0;entryPerimeter=0;" parent="1" source="78BIV_a2vbyTNAHULvef-2" target="78BIV_a2vbyTNAHULvef-5" edge="1">
          <mxGeometry width="160" relative="1" as="geometry">
            <mxPoint x="330" y="-410" as="sourcePoint" />
            <mxPoint x="490" y="-410" as="targetPoint" />
          </mxGeometry>
        </mxCell>
        <mxCell id="78BIV_a2vbyTNAHULvef-18" value="Use" style="endArrow=open;endSize=12;dashed=1;html=1;exitX=1;exitY=1;exitDx=0;exitDy=0;entryX=0;entryY=0.5;entryDx=0;entryDy=0;" parent="1" source="78BIV_a2vbyTNAHULvef-2" target="78BIV_a2vbyTNAHULvef-9" edge="1">
          <mxGeometry width="160" relative="1" as="geometry">
            <mxPoint x="330" y="-410" as="sourcePoint" />
            <mxPoint x="440" y="-380" as="targetPoint" />
          </mxGeometry>
        </mxCell>
        <mxCell id="78BIV_a2vbyTNAHULvef-19" value="Use" style="endArrow=open;endSize=12;dashed=1;html=1;exitX=1;exitY=0.5;exitDx=0;exitDy=0;entryX=0;entryY=0.5;entryDx=0;entryDy=0;" parent="1" source="78BIV_a2vbyTNAHULvef-2" target="78BIV_a2vbyTNAHULvef-8" edge="1">
          <mxGeometry width="160" relative="1" as="geometry">
            <mxPoint x="330" y="-410" as="sourcePoint" />
            <mxPoint x="490" y="-488" as="targetPoint" />
          </mxGeometry>
        </mxCell>
      </root>
    </mxGraphModel>
  </diagram>
  <diagram id="SkVuj0tF4XXO_pTDwX4R" name="Activity:Igranje Solitaire">
    <mxGraphModel dx="1038" dy="548" grid="1" gridSize="10" guides="1" tooltips="1" connect="1" arrows="1" fold="1" page="1" pageScale="1" pageWidth="827" pageHeight="1169" math="0" shadow="0">
      <root>
        <mxCell id="4m98veBbepMnk6HmKC_3-0" />
        <mxCell id="4m98veBbepMnk6HmKC_3-1" parent="4m98veBbepMnk6HmKC_3-0" />
        <mxCell id="4m98veBbepMnk6HmKC_3-2" value="" style="ellipse;html=1;shape=startState;fillColor=#000000;strokeColor=#ff0000;" parent="4m98veBbepMnk6HmKC_3-1" vertex="1">
          <mxGeometry x="320" y="10" width="30" height="30" as="geometry" />
        </mxCell>
        <mxCell id="4m98veBbepMnk6HmKC_3-3" value="" style="edgeStyle=orthogonalEdgeStyle;html=1;verticalAlign=bottom;endArrow=open;endSize=8;strokeColor=#ff0000;" parent="4m98veBbepMnk6HmKC_3-1" source="4m98veBbepMnk6HmKC_3-2" edge="1">
          <mxGeometry relative="1" as="geometry">
            <mxPoint x="335" y="90" as="targetPoint" />
          </mxGeometry>
        </mxCell>
        <mxCell id="F25s_fGvc8EPo-zJXseT-7" value="Napravljen niz&amp;nbsp;" style="rhombus;whiteSpace=wrap;html=1;fillColor=#ffffc0;strokeColor=#ff0000;" parent="4m98veBbepMnk6HmKC_3-1" vertex="1">
          <mxGeometry x="285" y="280" width="100" height="50" as="geometry" />
        </mxCell>
        <mxCell id="F25s_fGvc8EPo-zJXseT-8" value="no" style="edgeStyle=orthogonalEdgeStyle;html=1;align=left;verticalAlign=bottom;endArrow=open;endSize=8;strokeColor=#ff0000;entryX=1;entryY=0.5;entryDx=0;entryDy=0;" parent="4m98veBbepMnk6HmKC_3-1" source="F25s_fGvc8EPo-zJXseT-7" target="Qh_crsWt-kHArjGHV1NI-24" edge="1">
          <mxGeometry x="-1" relative="1" as="geometry">
            <mxPoint x="570.05" y="370" as="targetPoint" />
            <Array as="points">
              <mxPoint x="570" y="305" />
              <mxPoint x="570" y="205" />
            </Array>
          </mxGeometry>
        </mxCell>
        <mxCell id="F25s_fGvc8EPo-zJXseT-9" value="yes" style="edgeStyle=orthogonalEdgeStyle;html=1;align=left;verticalAlign=top;endArrow=open;endSize=8;strokeColor=#ff0000;" parent="4m98veBbepMnk6HmKC_3-1" edge="1">
          <mxGeometry x="-1" relative="1" as="geometry">
            <mxPoint x="340" y="380" as="targetPoint" />
            <mxPoint x="340" y="380" as="sourcePoint" />
          </mxGeometry>
        </mxCell>
        <mxCell id="HzPvS1mRdTxtyTrz__oX-0" value="" style="ellipse;html=1;shape=endState;fillColor=#000000;strokeColor=#ff0000;" parent="4m98veBbepMnk6HmKC_3-1" vertex="1">
          <mxGeometry x="320" y="450" width="30" height="30" as="geometry" />
        </mxCell>
        <mxCell id="Qh_crsWt-kHArjGHV1NI-23" value="" style="edgeStyle=orthogonalEdgeStyle;rounded=0;orthogonalLoop=1;jettySize=auto;html=1;" parent="4m98veBbepMnk6HmKC_3-1" edge="1">
          <mxGeometry relative="1" as="geometry">
            <mxPoint x="335" y="10" as="targetPoint" />
            <mxPoint x="335" y="90" as="sourcePoint" />
          </mxGeometry>
        </mxCell>
        <mxCell id="Qh_crsWt-kHArjGHV1NI-20" value="" style="edgeStyle=orthogonalEdgeStyle;html=1;verticalAlign=bottom;endArrow=open;endSize=8;strokeColor=#ff0000;exitX=0.5;exitY=1;exitDx=0;exitDy=0;" parent="4m98veBbepMnk6HmKC_3-1" edge="1">
          <mxGeometry relative="1" as="geometry">
            <mxPoint x="335" y="190" as="targetPoint" />
            <mxPoint x="335" y="120" as="sourcePoint" />
            <Array as="points" />
          </mxGeometry>
        </mxCell>
        <mxCell id="Qh_crsWt-kHArjGHV1NI-24" value="&lt;span style=&quot;font-weight: 400&quot;&gt;Slaganje&lt;/span&gt;" style="swimlane;html=1;fontStyle=1;align=center;verticalAlign=middle;childLayout=stackLayout;horizontal=1;startSize=30;horizontalStack=0;resizeParent=0;resizeLast=1;container=0;fontColor=#000000;collapsible=0;rounded=1;arcSize=30;strokeColor=#ff0000;fillColor=#ffffc0;swimlaneFillColor=#ffffc0;dropTarget=0;" parent="4m98veBbepMnk6HmKC_3-1" vertex="1">
          <mxGeometry x="250" y="190" width="160" height="30" as="geometry" />
        </mxCell>
        <mxCell id="Qh_crsWt-kHArjGHV1NI-29" value="&lt;span style=&quot;font-weight: 400&quot;&gt;Pobjeda&lt;/span&gt;" style="swimlane;html=1;fontStyle=1;align=center;verticalAlign=middle;childLayout=stackLayout;horizontal=1;startSize=30;horizontalStack=0;resizeParent=0;resizeLast=1;container=0;fontColor=#000000;collapsible=0;rounded=1;arcSize=30;strokeColor=#ff0000;fillColor=#ffffc0;swimlaneFillColor=#ffffc0;dropTarget=0;" parent="4m98veBbepMnk6HmKC_3-1" vertex="1">
          <mxGeometry x="260" y="370" width="160" height="30" as="geometry" />
        </mxCell>
        <mxCell id="Qh_crsWt-kHArjGHV1NI-32" value="igra훾a mo탑e slo탑iti karte" style="text;html=1;align=center;verticalAlign=middle;resizable=0;points=[];autosize=1;" parent="4m98veBbepMnk6HmKC_3-1" vertex="1">
          <mxGeometry x="185" y="330" width="140" height="20" as="geometry" />
        </mxCell>
        <mxCell id="PfNqXO6Q5IdhyQUpi3Ol-3" value="" style="edgeStyle=orthogonalEdgeStyle;html=1;verticalAlign=bottom;endArrow=open;endSize=8;strokeColor=#ff0000;entryX=0.5;entryY=0;entryDx=0;entryDy=0;" parent="4m98veBbepMnk6HmKC_3-1" target="F25s_fGvc8EPo-zJXseT-7" edge="1">
          <mxGeometry relative="1" as="geometry">
            <mxPoint x="470" y="270" as="targetPoint" />
            <mxPoint x="335" y="220" as="sourcePoint" />
            <Array as="points" />
          </mxGeometry>
        </mxCell>
        <mxCell id="PfNqXO6Q5IdhyQUpi3Ol-6" value="" style="edgeStyle=orthogonalEdgeStyle;html=1;verticalAlign=bottom;endArrow=open;endSize=8;strokeColor=#ff0000;" parent="4m98veBbepMnk6HmKC_3-1" edge="1">
          <mxGeometry relative="1" as="geometry">
            <mxPoint x="334.5" y="370" as="targetPoint" />
            <mxPoint x="334.5" y="330" as="sourcePoint" />
            <Array as="points" />
          </mxGeometry>
        </mxCell>
        <mxCell id="PfNqXO6Q5IdhyQUpi3Ol-7" value="" style="edgeStyle=orthogonalEdgeStyle;html=1;verticalAlign=bottom;endArrow=open;endSize=8;strokeColor=#ff0000;" parent="4m98veBbepMnk6HmKC_3-1" edge="1">
          <mxGeometry relative="1" as="geometry">
            <mxPoint x="334.5" y="447" as="targetPoint" />
            <mxPoint x="334.5" y="400" as="sourcePoint" />
            <Array as="points" />
          </mxGeometry>
        </mxCell>
        <mxCell id="rPs-vZYOj0eEpSsIYHe1-0" value="&lt;span style=&quot;font-weight: 400&quot;&gt;Dijeljenje karata&lt;/span&gt;" style="swimlane;html=1;fontStyle=1;align=center;verticalAlign=middle;childLayout=stackLayout;horizontal=1;startSize=30;horizontalStack=0;resizeParent=0;resizeLast=1;container=0;fontColor=#000000;collapsible=0;rounded=1;arcSize=30;strokeColor=#ff0000;fillColor=#ffffc0;swimlaneFillColor=#ffffc0;dropTarget=0;" vertex="1" parent="4m98veBbepMnk6HmKC_3-1">
          <mxGeometry x="255" y="90" width="160" height="30" as="geometry" />
        </mxCell>
      </root>
    </mxGraphModel>
  </diagram>
  <diagram id="vUCkv-2S8t0nyJwgYQ0f" name="Podaktivnost dijeljenja karata">
    <mxGraphModel dx="1038" dy="548" grid="1" gridSize="10" guides="1" tooltips="1" connect="1" arrows="1" fold="1" page="1" pageScale="1" pageWidth="850" pageHeight="1100" math="0" shadow="0">
      <root>
        <mxCell id="yTl_c_yznPGWO6Ydceu9-0" />
        <mxCell id="yTl_c_yznPGWO6Ydceu9-1" parent="yTl_c_yznPGWO6Ydceu9-0" />
        <mxCell id="yTl_c_yznPGWO6Ydceu9-3" value="" style="ellipse;html=1;shape=startState;fillColor=#000000;strokeColor=#ff0000;" parent="yTl_c_yznPGWO6Ydceu9-1" vertex="1">
          <mxGeometry x="350" y="40" width="30" height="30" as="geometry" />
        </mxCell>
        <mxCell id="yTl_c_yznPGWO6Ydceu9-4" value="" style="edgeStyle=orthogonalEdgeStyle;html=1;verticalAlign=bottom;endArrow=open;endSize=8;strokeColor=#ff0000;" parent="yTl_c_yznPGWO6Ydceu9-1" source="yTl_c_yznPGWO6Ydceu9-3" edge="1">
          <mxGeometry relative="1" as="geometry">
            <mxPoint x="365" y="130" as="targetPoint" />
          </mxGeometry>
        </mxCell>
        <mxCell id="yTl_c_yznPGWO6Ydceu9-8" style="edgeStyle=orthogonalEdgeStyle;rounded=0;orthogonalLoop=1;jettySize=auto;html=1;exitX=0.5;exitY=1;exitDx=0;exitDy=0;entryX=0.5;entryY=0;entryDx=0;entryDy=0;fillColor=#fff2cc;strokeColor=#d6b656;" parent="yTl_c_yznPGWO6Ydceu9-1" source="yTl_c_yznPGWO6Ydceu9-6" target="yTl_c_yznPGWO6Ydceu9-7" edge="1">
          <mxGeometry relative="1" as="geometry" />
        </mxCell>
        <mxCell id="yTl_c_yznPGWO6Ydceu9-6" value="Igra pomije큄a karte" style="ellipse;whiteSpace=wrap;html=1;fillColor=#fff2cc;strokeColor=#d6b656;" parent="yTl_c_yznPGWO6Ydceu9-1" vertex="1">
          <mxGeometry x="305" y="130" width="120" height="80" as="geometry" />
        </mxCell>
        <mxCell id="yTl_c_yznPGWO6Ydceu9-10" style="edgeStyle=orthogonalEdgeStyle;rounded=0;orthogonalLoop=1;jettySize=auto;html=1;exitX=0.5;exitY=1;exitDx=0;exitDy=0;entryX=0.5;entryY=0;entryDx=0;entryDy=0;fillColor=#fff2cc;strokeColor=#d6b656;" parent="yTl_c_yznPGWO6Ydceu9-1" source="yTl_c_yznPGWO6Ydceu9-7" target="yTl_c_yznPGWO6Ydceu9-9" edge="1">
          <mxGeometry relative="1" as="geometry" />
        </mxCell>
        <mxCell id="yTl_c_yznPGWO6Ydceu9-7" value="Igra podijeli karte" style="ellipse;whiteSpace=wrap;html=1;fillColor=#fff2cc;strokeColor=#d6b656;" parent="yTl_c_yznPGWO6Ydceu9-1" vertex="1">
          <mxGeometry x="305" y="250" width="120" height="80" as="geometry" />
        </mxCell>
        <mxCell id="yTl_c_yznPGWO6Ydceu9-12" style="edgeStyle=orthogonalEdgeStyle;rounded=0;orthogonalLoop=1;jettySize=auto;html=1;exitX=0.5;exitY=1;exitDx=0;exitDy=0;entryX=0.5;entryY=0;entryDx=0;entryDy=0;fillColor=#fff2cc;strokeColor=#d6b656;" parent="yTl_c_yznPGWO6Ydceu9-1" source="yTl_c_yznPGWO6Ydceu9-9" target="yTl_c_yznPGWO6Ydceu9-11" edge="1">
          <mxGeometry relative="1" as="geometry" />
        </mxCell>
        <mxCell id="yTl_c_yznPGWO6Ydceu9-9" value="Igra otkrije prvih 7 karata" style="ellipse;whiteSpace=wrap;html=1;fillColor=#dae8fc;strokeColor=#6c8ebf;" parent="yTl_c_yznPGWO6Ydceu9-1" vertex="1">
          <mxGeometry x="305" y="370" width="120" height="80" as="geometry" />
        </mxCell>
        <mxCell id="yTl_c_yznPGWO6Ydceu9-14" style="edgeStyle=orthogonalEdgeStyle;rounded=0;orthogonalLoop=1;jettySize=auto;html=1;exitX=0.5;exitY=1;exitDx=0;exitDy=0;entryX=0.5;entryY=0;entryDx=0;entryDy=0;" parent="yTl_c_yznPGWO6Ydceu9-1" source="yTl_c_yznPGWO6Ydceu9-11" target="yTl_c_yznPGWO6Ydceu9-13" edge="1">
          <mxGeometry relative="1" as="geometry" />
        </mxCell>
        <mxCell id="yTl_c_yznPGWO6Ydceu9-11" value="Po훾etak igre" style="ellipse;whiteSpace=wrap;html=1;fillColor=#fff2cc;strokeColor=#d6b656;" parent="yTl_c_yznPGWO6Ydceu9-1" vertex="1">
          <mxGeometry x="305" y="490" width="120" height="80" as="geometry" />
        </mxCell>
        <mxCell id="yTl_c_yznPGWO6Ydceu9-13" value="" style="ellipse;html=1;shape=endState;fillColor=#000000;strokeColor=#ff0000;" parent="yTl_c_yznPGWO6Ydceu9-1" vertex="1">
          <mxGeometry x="350" y="610" width="30" height="30" as="geometry" />
        </mxCell>
      </root>
    </mxGraphModel>
  </diagram>
</mxfile>
